{"title":"Grand Masti (2013) New DVDScr Source AC3 5.1 Line Audio Hindi","uid":8924265,"size":2518960132,"categoryP":"video","categoryS":"movies","magnet":"?xt=urn:btih:d6bbfe3e3013a045cbaacc45060aeba3488d7b77&amp;dn=Grand+Masti+%282013%29+New+DVDScr+Source+AC3+5.1+Line+Audio+Hindi&amp;tr=udp%3A%2F%2Ftracker.openbittorrent.com%3A80&amp;tr=udp%3A%2F%2Fopen.demonii.com%3A1337&amp;tr=udp%3A%2F%2Ftracker.coppersurfer.tk%3A6969&amp;tr=udp%3A%2F%2Fexodus.desync.com%3A6969","seeders":1,"leechers":0,"uploader":"SJonam","files":1,"time":1379328078,"description":" &lt;a href=&quot;http://picturestack.com/194/211/pLB1Z5w.jpg&quot; rel=&quot;nofollow&quot; target=&quot;_NEW&quot;&gt;http://picturestack.com/194/211/pLB1Z5w.jpg&lt;/a&gt; &lt;a href=&quot;\nhttp://img541.imageshack.us/img541/9025/7o7z.jpg&quot; rel=&quot;nofollow&quot; target=&quot;_NEW&quot;&gt;\nhttp://img541.imageshack.us/img541/9025/7o7z.jpg&lt;/a&gt; &lt;a href=&quot;\nhttp://img5.imageshack.us/img5/7645/qmjp.jpg&quot; rel=&quot;nofollow&quot; target=&quot;_NEW&quot;&gt;\nhttp://img5.imageshack.us/img5/7645/qmjp.jpg&lt;/a&gt; &lt;a href=&quot;\nhttp://img545.imageshack.us/img545/9890/7k5v.jpg&quot; rel=&quot;nofollow&quot; target=&quot;_NEW&quot;&gt;\nhttp://img545.imageshack.us/img545/9890/7k5v.jpg&lt;/a&gt; &lt;a href=&quot;\nhttp://img41.imageshack.us/img41/3879/5mag.jpg&quot; rel=&quot;nofollow&quot; target=&quot;_NEW&quot;&gt;\nhttp://img41.imageshack.us/img41/3879/5mag.jpg&lt;/a&gt; &lt;a href=&quot;\nhttp://img94.imageshack.us/img94/4411/igsg.jpg&quot; rel=&quot;nofollow&quot; target=&quot;_NEW&quot;&gt;\nhttp://img94.imageshack.us/img94/4411/igsg.jpg&lt;/a&gt; &lt;a href=&quot;\nhttp://img30.imageshack.us/img30/4595/9lnd.jpg&quot; rel=&quot;nofollow&quot; target=&quot;_NEW&quot;&gt;\nhttp://img30.imageshack.us/img30/4595/9lnd.jpg&lt;/a&gt; &lt;a href=&quot;\nhttp://img713.imageshack.us/img713/2233/rfvm.jpg&quot; rel=&quot;nofollow&quot; target=&quot;_NEW&quot;&gt;\nhttp://img713.imageshack.us/img713/2233/rfvm.jpg&lt;/a&gt; &lt;a href=&quot;\nhttp://img11.imageshack.us/img11/1851/uqls.jpg&quot; rel=&quot;nofollow&quot; target=&quot;_NEW&quot;&gt;\nhttp://img11.imageshack.us/img11/1851/uqls.jpg&lt;/a&gt; &lt;a href=&quot;\nhttp://img819.imageshack.us/img819/6757/q2gh.jpg&quot; rel=&quot;nofollow&quot; target=&quot;_NEW&quot;&gt;\nhttp://img819.imageshack.us/img819/6757/q2gh.jpg&lt;/a&gt; &lt;a href=&quot;\nhttp://img855.imageshack.us/img855/7638/yi1g.jpg&quot; rel=&quot;nofollow&quot; target=&quot;_NEW&quot;&gt;\nhttp://img855.imageshack.us/img855/7638/yi1g.jpg&lt;/a&gt; &lt;a href=&quot;\nhttp://img89.imageshack.us/img89/2739/8fgm.jpg&quot; rel=&quot;nofollow&quot; target=&quot;_NEW&quot;&gt;\nhttp://img89.imageshack.us/img89/2739/8fgm.jpg&lt;/a&gt;\n\nMedia Info - \nGeneral\nComplete name : Grand Masti (2013) New DVDScr Mpg Source - AC3 5.1 Line Audio Exclusive.mpg\nFormat : MPEG-PS\nFile size : 2.35 GiB\nDuration : 2h 11mn\nOverall bit rate : 2 558 Kbps\nWriting library : encoded by TMPGEnc Video Mastering Works 5 Version. 5.0.6.38\n\nVideo\nFormat : MPEG Video\nFormat version : Version 2\nFormat profile : Main@Main\nFormat settings, BVOP : Yes\nFormat settings, Matrix : Custom\nFormat settings, GOP : M=3, N=18\nDuration : 2h 11mn\nBit rate : 2 074 Kbps\nWidth : 720 pixels\nHeight : 304 pixels\nDisplay aspect ratio : 4:3\nFrame rate : 29.970 fps\nStandard : NTSC\nColor space : YUV\nChroma subsampling : 4:2:0\nBit depth : 8 bits\nScan type : Progressive\nCompression mode : Lossy\nBits/(Pixel*Frame) : 0.316\nStream size : 1.89 GiB (80%)\nWriting library : TMPGEnc Video Mastering Works 5 Version. 5.0.6.38\nColor primaries : SMPTE 170M\nTransfer characteristics : SMPTE 170M\nMatrix coefficients : SMPTE 170M\n\nAudio\nFormat : AC-3\nFormat/Info : Audio Coding 3\nMode extension : CM (complete main)\nMuxing mode : DVD-Video\nDuration : 2h 11mn\nBit rate mode : Constant\nBit rate : 448 Kbps\nChannel(s) : 2 channels\nChannel positions : Front: L R\nSampling rate : 48.0 KHz\nBit depth : 16 bits\nCompression mode : Lossy\nStream size : 421 MiB (18%)\n\nSharer : Mr. Unknown\n\nSeeding 24x7... Extreme Seeding...\n\n\nEnjoy!\n","torrent":{"xt":"urn:btih:d6bbfe3e3013a045cbaacc45060aeba3488d7b77","amp;dn":"Grand+Masti+%282013%29+New+DVDScr+Source+AC3+5.1+Line+Audio+Hindi","amp;tr":["udp%3A%2F%2Ftracker.openbittorrent.com%3A80","udp%3A%2F%2Fopen.demonii.com%3A1337","udp%3A%2F%2Ftracker.coppersurfer.tk%3A6969","udp%3A%2F%2Fexodus.desync.com%3A6969"],"infoHash":"d6bbfe3e3013a045cbaacc45060aeba3488d7b77","infoHashBuffer":{"type":"Buffer","data":[214,187,254,62,48,19,160,69,203,170,204,69,6,10,235,163,72,141,123,119]},"announce":[],"urlList":[]}}